HIERARCHY
ROOT Hips
{
  OFFSET -2.07705 96.3251 55.6806
  CHANNELS 6 Xposition Yposition Zposition Zrotation Xrotation Yrotation
  JOINT Chest
  {
    OFFSET 0 10.5691 -1.07959
    CHANNELS 6 Xposition Yposition Zposition Zrotation Xrotation Yrotation
    JOINT Chest2
    {
      OFFSET 0 11.6675 1.08235
      CHANNELS 6 Xposition Yposition Zposition Zrotation Xrotation Yrotation
      JOINT Chest3
      {
        OFFSET 0 10.5876 0
        CHANNELS 6 Xposition Yposition Zposition Zrotation Xrotation Yrotation
        JOINT Chest4
        {
          OFFSET 0 10.5876 0
          CHANNELS 6 Xposition Yposition Zposition Zrotation Xrotation Yrotation
          JOINT Neck
          {
            OFFSET 0 14.88 -9.05173e-005
            CHANNELS 6 Xposition Yposition Zposition Zrotation Xrotation Yrotation
            JOINT Head
            {
              OFFSET 0 9.61472 2.16553
              CHANNELS 6 Xposition Yposition Zposition Zrotation Xrotation Yrotation
              End Site
              {
                OFFSET 0 0 0
              }
            }
          }
          JOINT RightCollar
          {
            OFFSET -3.23953 8.30385 0
            CHANNELS 6 Xposition Yposition Zposition Zrotation Xrotation Yrotation
            JOINT RightShoulder
            {
              OFFSET -15.1725 0 0
              CHANNELS 6 Xposition Yposition Zposition Zrotation Xrotation Yrotation
              JOINT RightElbow
              {
                OFFSET -32.4113 0 0
                CHANNELS 6 Xposition Yposition Zposition Zrotation Xrotation Yrotation
                JOINT RightWrist
                {
                  OFFSET -26.4919 0 1.0813
                  CHANNELS 6 Xposition Yposition Zposition Zrotation Xrotation Yrotation
                  End Site
                  {
                    OFFSET 0 0 0
                  }
                }
              }
            }
          }
          JOINT LeftCollar
          {
            OFFSET 3.23953 8.30385 0
            CHANNELS 6 Xposition Yposition Zposition Zrotation Xrotation Yrotation
            JOINT LeftShoulder
            {
              OFFSET 15.1725 0 0
              CHANNELS 6 Xposition Yposition Zposition Zrotation Xrotation Yrotation
              JOINT LeftElbow
              {
                OFFSET 32.4113 0 0
                CHANNELS 6 Xposition Yposition Zposition Zrotation Xrotation Yrotation
                JOINT LeftWrist
                {
                  OFFSET 26.4919 0 1.0813
                  CHANNELS 6 Xposition Yposition Zposition Zrotation Xrotation Yrotation
                  End Site
                  {
                    OFFSET 0 0 0
                  }
                }
              }
            }
          }
        }
      }
    }
  }
  JOINT RightHip
  {
    OFFSET -8.63673 0.00547028 0
    CHANNELS 6 Xposition Yposition Zposition Zrotation Xrotation Yrotation
    JOINT RightKnee
    {
      OFFSET 0 -44.4933 -2.13952
      CHANNELS 6 Xposition Yposition Zposition Zrotation Xrotation Yrotation
      JOINT RightAnkle
      {
        OFFSET 0 -43.4407 -3.5405
        CHANNELS 6 Xposition Yposition Zposition Zrotation Xrotation Yrotation
        JOINT RightToe
        {
          OFFSET 0 -8.39271 19.1252
          CHANNELS 6 Xposition Yposition Zposition Zrotation Xrotation Yrotation
          End Site
          {
            OFFSET 0 0 0
          }
        }
      }
    }
  }
  JOINT LeftHip
  {
    OFFSET 8.63673 0.00547028 0
    CHANNELS 6 Xposition Yposition Zposition Zrotation Xrotation Yrotation
    JOINT LeftKnee
    {
      OFFSET 0 -44.4932 -2.13962
      CHANNELS 6 Xposition Yposition Zposition Zrotation Xrotation Yrotation
      JOINT LeftAnkle
      {
        OFFSET 0 -43.4408 -3.54051
        CHANNELS 6 Xposition Yposition Zposition Zrotation Xrotation Yrotation
        JOINT LeftToe
        {
          OFFSET 0 -8.3927 19.1252
          CHANNELS 6 Xposition Yposition Zposition Zrotation Xrotation Yrotation
          End Site
          {
            OFFSET 0 0 0
          }
        }
      }
    }
  }
}
MOTION
Frames:	6
Frame Time:	0.0333333
-2.14327 96.3565 55.6452 -0.20034 0.18318 179.972 0 10.5691 -1.07959 -0.0201057 0.0187543 -0.000386712 1.77636e-015 11.6675 1.08235 -0.0402138 0.0375098 -0.00292158 1.33227e-015 10.5876 0 -0.0402138 0.0375098 -0.00292158 4.44089e-016 10.5876 -1.42109e-014 -0.0402138 0.0375098 -0.00292157 2.22045e-015 14.88 -9.05173e-005 -0.0251928 0.277771 -0.123419 -4.44089e-016 9.61472 2.16553 -0.200569 -0.537712 -0.086915 -3.23953 8.30385 -7.10543e-015 6.00576e-019 0 -6.21202e-018 -15.1725 -4.76837e-006 0 -3.40625 -18.5143 -7.75581 -32.4113 5.06627e-006 1.36619e-006 7.28126 -6.9014 3.30009 -26.4919 -8.83504e-007 1.0813 -3.4731 0.260021 -10.2803 3.23953 8.30385 -7.10543e-015 6.00576e-019 0 -6.21202e-018 15.1725 -4.76837e-006 -7.10543e-015 -2.13477 -29.2059 3.56854 32.4113 -2.17716e-006 2.18426e-007 -5.35823 -8.64736 -0.315069 26.4919 -6.03762e-007 1.0813 7.02296 0.564506 10.9089 -8.63673 0.00547028 0 -2.41847 -2.96828 -1.03793 -9.76334e-006 -44.4933 -2.13952 2.34096 2.49291 0.764505 5.03153e-007 -43.4407 -3.5405 -0.235083 0.748823 0.0493807 4.34188e-007 -8.39271 19.1252 -0.107665 -0.0963957 0.373853 8.63673 0.00547028 0 1.87246 -2.6205 0.766609 6.47268e-006 -44.4932 -2.13962 -2.27594 1.78922 -0.499513 -1.12983e-007 -43.4408 -3.54051 0.138405 1.06914 -0.0090458 1.87432e-007 -8.3927 19.1252 0.0604733 -0.0394422 -0.184513 
-2.36197 96.4613 55.5298 -0.888802 0.803801 179.915 4.44089e-016 10.5691 -1.07959 -0.0991149 0.0787571 -0.000386712 2.66454e-015 11.6675 1.08235 -0.19821 0.157522 -0.0129331 1.33227e-015 10.5876 -7.10543e-015 -0.19821 0.157522 -0.0129331 1.33227e-015 10.5876 0 -0.19821 0.157522 -0.012933 1.77636e-015 14.88 -9.05173e-005 -0.0165364 1.25904 -0.0666376 -8.88178e-016 9.61472 2.16553 -0.756229 -1.67438 0.0910073 -3.23953 8.30385 0 9.4248e-017 -4.96962e-017 -2.48481e-017 -15.1725 -4.76837e-006 0 -3.56351 -19.2613 -7.35198 -32.4113 5.06627e-006 1.36619e-006 6.9692 -6.46316 2.53248 -26.4919 -8.83504e-007 1.0813 -3.43004 0.235037 -9.5798 3.23953 8.30385 0 9.4248e-017 -4.96962e-017 -2.48481e-017 15.1725 -4.76837e-006 -7.10543e-015 -2.13094 -29.302 3.72035 32.4113 -2.17716e-006 2.18426e-007 -5.29545 -8.63128 -0.278168 26.4919 -6.03762e-007 1.0813 6.95332 0.557658 10.8892 -8.63673 0.00547028 -7.10543e-015 -3.74758 -2.38279 0.0625409 -9.76334e-006 -44.4933 -2.13952 3.37863 2.65431 -0.732905 5.03153e-007 -43.4407 -3.5405 -0.335537 0.505099 0.138495 4.34188e-007 -8.39271 19.1252 -0.152205 0.15867 1.17833 8.63673 0.00547028 -7.10543e-015 0.81432 -0.806119 0.306961 6.47268e-006 -44.4932 -2.13962 -1.86915 -0.511101 0.229203 -1.12983e-007 -43.4408 -3.54051 0.0968105 2.08031 0.0709666 1.87432e-007 -8.3927 19.1252 0.195975 -0.0902319 -0.686225 
-2.43553 96.4938 55.4794 -1.20073 1.05791 179.992 0 10.5691 -1.07959 -0.160273 0.0952758 -0.000386712 2.66454e-015 11.6675 1.08235 -0.320512 0.190564 -0.0135231 1.77636e-015 10.5876 0 -0.320513 0.190564 -0.0135231 1.33227e-015 10.5876 -7.10543e-015 -0.320513 0.190564 -0.0135231 1.9984e-015 14.88 -9.05173e-005 -0.339888 1.15872 1.01184 -8.88178e-016 9.61472 2.16553 0.372939 0.595645 0.794973 -3.23953 8.30385 -7.10543e-015 3.91163e-017 -9.93923e-017 -1.2424e-017 -15.1725 -4.76837e-006 7.10543e-015 -3.43831 -19.8569 -7.21091 -32.4113 5.06627e-006 1.36619e-006 6.76233 -6.22123 2.12123 -26.4919 -8.83504e-007 1.0813 -3.92085 0.260665 -9.32072 3.23953 8.30385 0 3.91163e-017 -9.93923e-017 -1.2424e-017 15.1725 -4.76837e-006 -1.42109e-014 -2.01597 -29.5416 3.6209 32.4113 -2.17716e-006 2.18426e-007 -5.15007 -8.66436 -0.221888 26.4919 -6.03762e-007 1.0813 6.88376 0.554757 10.9336 -8.63673 0.00547028 7.10543e-015 -4.18993 -2.01432 -0.13141 -9.76334e-006 -44.4933 -2.13952 3.55218 2.51176 -0.377663 5.03153e-007 -43.4407 -3.5405 -0.42443 0.458503 0.157003 4.34188e-007 -8.39271 19.1252 -0.0382923 -0.0190799 0.161796 8.63673 0.00547028 7.10543e-015 0.400995 -0.533923 0.441768 6.47268e-006 -44.4932 -2.13962 -1.80665 -0.4946 0.167672 -1.12983e-007 -43.4408 -3.54051 0.212211 1.99522 0.19163 1.87432e-007 -8.3927 19.1252 0.33496 -0.248179 -0.965019 
-2.47525 96.4994 55.4069 -1.35756 1.1854 179.989 8.88178e-016 10.5691 -1.07959 -0.177569 0.109784 -0.000386712 2.66454e-015 11.6675 1.08235 -0.35513 0.219569 -0.00292165 1.77636e-015 10.5876 0 -0.35513 0.219569 -0.00292166 1.33227e-015 10.5876 -7.10543e-015 -0.35513 0.219569 -0.00292166 1.77636e-015 14.88 -9.05173e-005 -1.81592 -0.185318 0.296287 -8.88178e-016 9.61472 2.16553 2.9269 2.09473 -0.949957 -3.23953 8.30385 0 7.18265e-018 -4.96962e-017 -1.86361e-017 -15.1725 -4.76837e-006 7.10543e-015 -3.48312 -19.7911 -7.20324 -32.4113 5.06627e-006 1.36619e-006 6.80587 -6.4301 2.17195 -26.4919 -8.83504e-007 1.0813 -4.24431 0.296162 -9.71192 3.23953 8.30385 0 7.18265e-018 -4.96962e-017 -1.86361e-017 15.1725 -4.76837e-006 -1.42109e-014 -2.0069 -29.6036 3.59108 32.4113 -2.17716e-006 2.18426e-007 -5.10308 -8.62127 -0.136243 26.4919 -6.03762e-007 1.0813 6.79744 0.544247 10.8744 -8.63673 0.00547028 7.10543e-015 -4.43248 -1.85177 -0.120158 -9.76334e-006 -44.4933 -2.13952 3.64956 2.55469 -0.388839 5.03153e-007 -43.4407 -3.5405 -0.284981 0.29276 0.329506 4.34188e-007 -8.39271 19.1252 0.157934 0.281897 -0.218313 8.63673 0.00547028 7.10543e-015 0.175814 -0.315142 0.446435 6.47268e-006 -44.4932 -2.13962 -1.69338 -0.580726 0.2733 -1.12983e-007 -43.4408 -3.54051 0.155423 2.03542 0.19995 1.87432e-007 -8.3927 19.1252 0.442385 -0.266289 -1.42158 
-2.46278 96.5107 55.3915 -1.40261 1.18506 -179.986 0 10.5691 -1.07959 -0.181625 0.10343 -0.00103148 3.55271e-015 11.6675 1.08235 -0.362936 0.20686 -0.0010101 1.77636e-015 10.5876 0 -0.362937 0.206861 -0.0010101 1.33227e-015 10.5876 -1.42109e-014 -0.362936 0.206861 -0.0010101 1.77636e-015 14.88 -9.05173e-005 -1.39395 0.45461 0.0912194 -2.22045e-016 9.61472 2.16553 1.51921 -0.186241 -0.664765 -3.23953 8.30385 0 -1.84905e-017 9.93923e-017 3.10601e-018 -15.1725 -4.76837e-006 7.10543e-015 -3.49851 -19.7497 -7.22475 -32.4113 5.06627e-006 1.36619e-006 6.81126 -6.38791 2.25537 -26.4919 -8.83504e-007 1.0813 -4.00216 0.275554 -9.6037 3.23953 8.30385 -7.10543e-015 -1.84905e-017 9.93923e-017 3.10601e-018 15.1725 -4.76837e-006 0 -1.97324 -29.6114 3.57651 32.4113 -2.17716e-006 2.18426e-007 -5.07915 -8.62244 -0.0375742 26.4919 -6.03762e-007 1.0813 6.74386 0.539584 10.8684 -8.63673 0.00547028 0 -4.45318 -1.86241 -0.126009 -9.76334e-006 -44.4933 -2.13952 3.62151 2.56779 -0.415543 5.03153e-007 -43.4407 -3.5405 -0.374512 0.434867 0.0898395 4.34188e-007 -8.39271 19.1252 -0.119623 -0.083107 0.464377 8.63673 0.00547028 0 0.137966 -0.30659 0.45311 6.47268e-006 -44.4932 -2.13962 -1.68672 -0.596602 0.288018 -1.12983e-007 -43.4408 -3.54051 0.142776 2.01436 0.161788 1.87432e-007 -8.3927 19.1252 0.412473 -0.167001 -1.50825 
-2.42952 96.5124 55.3882 -1.38595 1.13204 -179.954 8.88178e-016 10.5691 -1.07959 -0.175275 0.0933597 -0.00503337 2.66454e-015 11.6675 1.08235 -0.354003 0.18675 -0.00977867 1.33227e-015 10.5876 0 -0.354003 0.18675 -0.00977866 1.33227e-015 10.5876 0 -0.354003 0.18675 -0.00977866 1.77636e-015 14.88 -9.05173e-005 -1.64572 -0.0719169 0.303369 -4.44089e-016 9.61472 2.16553 2.14794 1.49347 -0.69457 -3.23953 8.30385 7.10543e-015 -5.79222e-017 -9.93923e-017 -1.55301e-018 -15.1725 -4.76837e-006 0 -3.50649 -19.7037 -7.20189 -32.4113 5.06627e-006 1.36619e-006 6.82853 -6.36383 2.23105 -26.4919 -8.83504e-007 1.0813 -3.95559 0.270375 -9.54561 3.23953 8.30385 0 -5.79222e-017 -9.93923e-017 -1.55301e-018 15.1725 -4.76837e-006 -1.42109e-014 -1.94969 -29.7019 3.56547 32.4113 -2.17716e-006 2.18426e-007 -5.03227 -8.65715 0.0459294 26.4919 -6.03762e-007 1.0813 6.71572 0.539739 10.909 -8.63673 0.00547028 0 -4.40853 -1.88437 -0.109806 -9.76334e-006 -44.4933 -2.13952 3.5921 2.52099 -0.479403 5.03153e-007 -43.4407 -3.5405 -0.210773 0.417818 0.208071 4.34188e-007 -8.39271 19.1252 -0.0391523 -0.0179106 0.172038 8.63673 0.00547028 0 0.191187 -0.34995 0.524718 6.47268e-006 -44.4932 -2.13962 -1.7083 -0.621315 0.210984 -1.12983e-007 -43.4408 -3.54051 0.106739 1.9735 0.0870861 1.87432e-007 -8.3927 19.1252 0.314734 -0.105291 -1.19732 
